<svg width="512" height="512">
	<path d="m 365.2365,132.95635 c -3.48437,-5.76184 -10.38272,-8.49994 -16.86655,-6.69142 -6.48435,1.80851 -10.97258,7.71861 -10.97258,14.44923 0,18.30919 -14.89456,33.19842 -33.19843,33.19842 -18.3052,0 -33.19842,-14.89056 -33.19842,-33.19842 V 15.000398 c 0,-6.0663567 -3.65625,-11.5351173 -9.26167,-13.8559002 C 256.13343,-1.179752 249.68427,0.10130525 245.39497,4.3943414 243.70752,6.0779291 203.71127,46.312705 163.1889,107.0976 139.29041,142.94133 120.21987,178.49575 106.50931,212.77283 89.14277,256.19785 80.3335,297.76821 80.3335,336.3346 80.3335,433.1939 159.13826,512 255.99889,512 c 96.8593,0 175.6654,-78.80476 175.6654,-175.6654 0.004,-62.00354 -22.34784,-130.42838 -66.42486,-203.37185 z" fill="#ff9f00"/>
	<path d="m 365.2365,132.95635 c -3.48437,-5.76184 -10.38272,-8.49994 -16.86655,-6.69142 -6.48435,1.80851 -10.97258,7.71861 -10.97258,14.44923 0,18.30919 -14.89456,33.19842 -33.19843,33.19842 -18.3052,0 -33.19842,-14.89056 -33.19842,-33.19842 V 15.000398 c 0,-6.0663567 -3.65625,-11.5351173 -9.26167,-13.8559002 -1.85546,-0.77332791 -3.80463,-1.13673842 -5.73822,-1.13673842 V 511.99072 c 96.8633,0 175.66539,-78.80476 175.66539,-175.6654 0,-61.99954 -22.35184,-130.42438 -66.42885,-203.37185 z" fill="#ff7f1f"/>
</svg>
